STARTFONT 2.1
FONT -Hewlett Packard-User-Medium-R-Normal-Serif-17-150-72-72-M-90-HP-WA
SIZE 15 72 72
FONTBOUNDINGBOX 9 17 0 -6

STARTPROPERTIES 26
COPYRIGHT "(c)Copyright 1991, Hewlett Packard Company"
NOTICE "Hewlett Packard Co., 3000 Hanover St., Palo Alto, CA 94303, USA"
FONTNAME_REGISTRY ""
FOUNDRY "Hewlett Packard"
FAMILY_NAME "User"
WEIGHT_NAME "Medium"
SLANT "R"
ADD_STYLE_NAME "Serif"
SETWIDTH_NAME "Normal"
PIXEL_SIZE 17
POINT_SIZE 150
RESOLUTION_X 72
RESOLUTION_Y 72
SPACING "M"
AVERAGE_WIDTH 90
CHARSET_REGISTRY "HP"
CHARSET_ENCODING "WA"
CHARSET_COLLECTIONS "HP-WA"
FULL_NAME "User9x17"
CAP_HEIGHT 10
X_HEIGHT 7
WEIGHT 10
QUAD_WIDTH 9
DEFAULT_CHAR 32
FONT_DESCENT 6
FONT_ASCENT 11
ENDPROPERTIES

CHARS 235

STARTCHAR Kasratan
ENCODING 16
SWIDTH 900 0
DWIDTH 9 0
BBX 9 17 0 -6
BITMAP
0000
0000
0000
0000
0000
0000
0000
0000
0400
0800
0800
0800
1C00
6F80
9780
6000
8000
ENDCHAR

STARTCHAR Desc
ENCODING 17
SWIDTH 900 0
DWIDTH 9 0
BBX 9 17 0 -6
BITMAP
0300
0C00
3100
0500
1500
1600
1800
0000
0400
0800
0800
0800
0C00
0F80
0780
0000
0000
ENDCHAR

STARTCHAR Desc
ENCODING 18
SWIDTH 900 0
DWIDTH 9 0
BBX 9 17 0 -6
BITMAP
0C00
1400
1C00
3200
4A00
2A00
2C00
3000
0400
0800
0800
0800
0C00
0F80
0780
0000
0000
ENDCHAR

STARTCHAR Desc
ENCODING 19
SWIDTH 900 0
DWIDTH 9 0
BBX 9 17 0 -6
BITMAP
0100
0500
1500
1600
1980
0600
1800
0000
0400
0800
0800
0800
0C00
0F80
0780
0000
0000
ENDCHAR

STARTCHAR Desc
ENCODING 20
SWIDTH 900 0
DWIDTH 9 0
BBX 9 17 0 -6
BITMAP
0000
0000
0180
0600
1800
0000
0000
0000
0400
0800
0800
0800
0C00
0F80
0780
0000
0000
ENDCHAR

STARTCHAR Desc
ENCODING 21
SWIDTH 900 0
DWIDTH 9 0
BBX 9 17 0 -6
BITMAP
0000
0180
0280
0380
0100
0200
0400
0000
0400
0800
0800
0800
0C00
0F80
0780
0000
0000
ENDCHAR

STARTCHAR Kasra
ENCODING 22
SWIDTH 900 0
DWIDTH 9 0
BBX 9 17 0 -6
BITMAP
0000
0000
0000
0000
0000
0000
0000
0000
0400
0800
0800
0800
0C00
0F80
1780
6000
8000
ENDCHAR

STARTCHAR Desc
ENCODING 23
SWIDTH 900 0
DWIDTH 9 0
BBX 9 17 0 -6
BITMAP
0000
0300
0480
0480
0300
0000
0000
0000
0400
0800
0800
0800
0C00
0F80
0780
0000
0000
ENDCHAR

STARTCHAR Desc
ENCODING 24
SWIDTH 900 0
DWIDTH 9 0
BBX 9 17 0 -6
BITMAP
0000
0080
0280
0A80
0B00
0C00
0000
0000
0400
0800
0800
0800
0C00
0F80
0780
0000
0000
ENDCHAR

STARTCHAR Ain
ENCODING 25
SWIDTH 900 0
DWIDTH 9 0
BBX 9 17 0 -6
BITMAP
0000
0000
0000
0000
0000
0000
1C00
3E00
1C00
2780
4380
4000
4000
6000
7080
3F00
1E00
ENDCHAR

STARTCHAR Intl
ENCODING 26
SWIDTH 900 0
DWIDTH 9 0
BBX 9 17 0 -6
BITMAP
0000
0800
1800
0800
0800
0800
0800
0800
1800
F000
E000
0000
0000
0000
0000
0000
0000
ENDCHAR

STARTCHAR Lam
ENCODING 28
SWIDTH 900 0
DWIDTH 9 0
BBX 9 17 0 -6
BITMAP
0000
0100
C100
E100
3300
1300
0B00
0D00
0D00
3980
E080
0000
0000
0000
0000
0000
0000
ENDCHAR

STARTCHAR Heh
ENCODING 29
SWIDTH 900 0
DWIDTH 9 0
BBX 9 17 0 -6
BITMAP
0000
0000
0200
0200
0600
1E00
3200
6600
7F00
3B80
0180
0000
0000
0000
0000
0000
0000
ENDCHAR

STARTCHAR space
ENCODING 32
SWIDTH 900 0
DWIDTH 9 0
BBX 9 17 0 -6
BITMAP
0000
0000
0000
0000
0000
0000
0000
0000
0000
0000
0000
0000
0000
0000
0000
0000
0000
ENDCHAR

STARTCHAR exclam
ENCODING 33
SWIDTH 900 0
DWIDTH 9 0
BBX 9 17 0 -6
BITMAP
0C00
0C00
0C00
0C00
0C00
0C00
0C00
0000
0000
0000
0C00
0C00
0000
0000
0000
0000
0000
ENDCHAR

STARTCHAR quotedbl
ENCODING 34
SWIDTH 900 0
DWIDTH 9 0
BBX 9 17 0 -6
BITMAP
1200
1200
1200
1200
1200
0000
0000
0000
0000
0000
0000
0000
0000
0000
0000
0000
0000
ENDCHAR

STARTCHAR numbersign
ENCODING 35
SWIDTH 900 0
DWIDTH 9 0
BBX 9 17 0 -6
BITMAP
1200
1200
1200
7F80
1200
1200
1200
7F80
1200
1200
1200
1200
0000
0000
0000
0000
0000
ENDCHAR

STARTCHAR dollar
ENCODING 36
SWIDTH 900 0
DWIDTH 9 0
BBX 9 17 0 -6
BITMAP
0800
1E00
2200
2000
2000
1C00
0200
0200
0200
2200
3C00
0800
0800
0000
0000
0000
0000
ENDCHAR

STARTCHAR percent
ENCODING 37
SWIDTH 900 0
DWIDTH 9 0
BBX 9 17 0 -6
BITMAP
3100
4900
4A00
3200
0400
0400
0800
0800
1300
1480
2480
2300
0000
0000
0000
0000
0000
ENDCHAR

STARTCHAR ampersand
ENCODING 38
SWIDTH 900 0
DWIDTH 9 0
BBX 9 17 0 -6
BITMAP
1C00
2200
2200
2200
1400
0800
1400
2280
2280
2100
2300
1C80
0000
0000
0000
0000
0000
ENDCHAR

STARTCHAR quoteright
ENCODING 39
SWIDTH 900 0
DWIDTH 9 0
BBX 9 17 0 -6
BITMAP
0C00
0C00
0400
0800
1000
0000
0000
0000
0000
0000
0000
0000
0000
0000
0000
0000
0000
ENDCHAR

STARTCHAR parenleft
ENCODING 40
SWIDTH 900 0
DWIDTH 9 0
BBX 9 17 0 -6
BITMAP
0200
0400
0C00
0C00
1800
1800
1800
1800
1800
0C00
0C00
0400
0200
0000
0000
0000
0000
ENDCHAR

STARTCHAR parenright
ENCODING 41
SWIDTH 900 0
DWIDTH 9 0
BBX 9 17 0 -6
BITMAP
1000
0800
0C00
0C00
0600
0600
0600
0600
0600
0C00
0C00
0800
1000
0000
0000
0000
0000
ENDCHAR

STARTCHAR asterisk
ENCODING 42
SWIDTH 900 0
DWIDTH 9 0
BBX 9 17 0 -6
BITMAP
0000
0000
0800
4900
2A00
1C00
2A00
4900
0800
0000
0000
0000
0000
0000
0000
0000
0000
ENDCHAR

STARTCHAR plus
ENCODING 43
SWIDTH 900 0
DWIDTH 9 0
BBX 9 17 0 -6
BITMAP
0000
0000
0800
0800
0800
7F00
0800
0800
0800
0000
0000
0000
0000
0000
0000
0000
0000
ENDCHAR

STARTCHAR comma
ENCODING 44
SWIDTH 900 0
DWIDTH 9 0
BBX 9 17 0 -6
BITMAP
0000
0000
0000
0000
0000
0000
0000
0000
0000
0C00
0C00
0400
0800
1000
0000
0000
0000
ENDCHAR

STARTCHAR hyphen
ENCODING 45
SWIDTH 900 0
DWIDTH 9 0
BBX 9 17 0 -6
BITMAP
0000
0000
0000
0000
0000
7F00
0000
0000
0000
0000
0000
0000
0000
0000
0000
0000
0000
ENDCHAR

STARTCHAR period
ENCODING 46
SWIDTH 900 0
DWIDTH 9 0
BBX 9 17 0 -6
BITMAP
0000
0000
0000
0000
0000
0000
0000
0000
0000
0C00
0C00
0000
0000
0000
0000
0000
0000
ENDCHAR

STARTCHAR c1224
ENCODING 47
SWIDTH 900 0
DWIDTH 9 0
BBX 9 17 0 -6
BITMAP
0100
0200
0200
0400
0400
0800
0800
1000
1000
2000
2000
4000
0000
0000
0000
0000
0000
ENDCHAR

STARTCHAR zero
ENCODING 48
SWIDTH 900 0
DWIDTH 9 0
BBX 9 17 0 -6
BITMAP
0000
1C00
2200
4100
4100
4900
4900
4100
4100
2200
1C00
0000
0000
0000
0000
0000
0000
ENDCHAR

STARTCHAR one
ENCODING 49
SWIDTH 900 0
DWIDTH 9 0
BBX 9 17 0 -6
BITMAP
0000
0400
1C00
0400
0400
0400
0400
0400
0400
0400
0400
0000
0000
0000
0000
0000
0000
ENDCHAR

STARTCHAR two
ENCODING 50
SWIDTH 900 0
DWIDTH 9 0
BBX 9 17 0 -6
BITMAP
0000
1E00
2100
2100
0100
0200
0400
0800
1000
2100
3F00
0000
0000
0000
0000
0000
0000
ENDCHAR

STARTCHAR three
ENCODING 51
SWIDTH 900 0
DWIDTH 9 0
BBX 9 17 0 -6
BITMAP
0000
0E00
1100
0100
0200
0E00
0100
0100
0100
2100
1E00
0000
0000
0000
0000
0000
0000
ENDCHAR

STARTCHAR four
ENCODING 52
SWIDTH 900 0
DWIDTH 9 0
BBX 9 17 0 -6
BITMAP
0000
0400
0800
0800
1000
1200
2200
2200
7F00
0200
0200
0000
0000
0000
0000
0000
0000
ENDCHAR

STARTCHAR five
ENCODING 53
SWIDTH 900 0
DWIDTH 9 0
BBX 9 17 0 -6
BITMAP
0000
1F00
1000
1000
1C00
0200
0100
0100
0100
2100
1E00
0000
0000
0000
0000
0000
0000
ENDCHAR

STARTCHAR six
ENCODING 54
SWIDTH 900 0
DWIDTH 9 0
BBX 9 17 0 -6
BITMAP
0000
0E00
1000
2000
2000
2E00
3100
2100
2100
2100
1E00
0000
0000
0000
0000
0000
0000
ENDCHAR

STARTCHAR seven
ENCODING 55
SWIDTH 900 0
DWIDTH 9 0
BBX 9 17 0 -6
BITMAP
0000
3F00
0100
0200
0200
0400
0400
0800
0800
1000
1000
0000
0000
0000
0000
0000
0000
ENDCHAR

STARTCHAR eight
ENCODING 56
SWIDTH 900 0
DWIDTH 9 0
BBX 9 17 0 -6
BITMAP
0000
1E00
2100
2100
2100
1E00
2100
2100
2100
2100
1E00
0000
0000
0000
0000
0000
0000
ENDCHAR

STARTCHAR nine
ENCODING 57
SWIDTH 900 0
DWIDTH 9 0
BBX 9 17 0 -6
BITMAP
0000
1E00
2100
2100
2100
2300
1D00
0100
0100
0200
1C00
0000
0000
0000
0000
0000
0000
ENDCHAR

STARTCHAR colon
ENCODING 58
SWIDTH 900 0
DWIDTH 9 0
BBX 9 17 0 -6
BITMAP
0000
0000
0000
0000
0C00
0C00
0000
0000
0000
0C00
0C00
0000
0000
0000
0000
0000
0000
ENDCHAR

STARTCHAR semicolon
ENCODING 59
SWIDTH 900 0
DWIDTH 9 0
BBX 9 17 0 -6
BITMAP
0000
0000
0000
0000
0C00
0C00
0000
0000
0000
0C00
0C00
0400
0800
1000
0000
0000
0000
ENDCHAR

STARTCHAR less
ENCODING 60
SWIDTH 900 0
DWIDTH 9 0
BBX 9 17 0 -6
BITMAP
0000
0300
0400
1800
2000
4000
2000
1800
0400
0300
0000
0000
0000
0000
0000
0000
0000
ENDCHAR

STARTCHAR equal
ENCODING 61
SWIDTH 900 0
DWIDTH 9 0
BBX 9 17 0 -6
BITMAP
0000
0000
0000
0000
7F00
0000
7F00
0000
0000
0000
0000
0000
0000
0000
0000
0000
0000
ENDCHAR

STARTCHAR greater
ENCODING 62
SWIDTH 900 0
DWIDTH 9 0
BBX 9 17 0 -6
BITMAP
0000
6000
1000
0C00
0200
0100
0200
0C00
1000
6000
0000
0000
0000
0000
0000
0000
0000
ENDCHAR

STARTCHAR question
ENCODING 63
SWIDTH 900 0
DWIDTH 9 0
BBX 9 17 0 -6
BITMAP
1E00
3300
3300
0300
0600
0C00
0C00
0000
0000
0000
0C00
0C00
0000
0000
0000
0000
0000
ENDCHAR

STARTCHAR at
ENCODING 64
SWIDTH 900 0
DWIDTH 9 0
BBX 9 17 0 -6
BITMAP
1E00
2100
4100
4700
4900
4900
4900
4900
4680
4000
2000
1F00
0000
0000
0000
0000
0000
ENDCHAR

STARTCHAR A
ENCODING 65
SWIDTH 900 0
DWIDTH 9 0
BBX 9 17 0 -6
BITMAP
0000
0800
0800
1400
1400
2200
2200
3E00
4100
4100
E380
0000
0000
0000
0000
0000
0000
ENDCHAR

STARTCHAR B
ENCODING 66
SWIDTH 900 0
DWIDTH 9 0
BBX 9 17 0 -6
BITMAP
0000
7C00
2200
2200
2200
3E00
2100
2100
2100
2100
7E00
0000
0000
0000
0000
0000
0000
ENDCHAR

STARTCHAR C
ENCODING 67
SWIDTH 900 0
DWIDTH 9 0
BBX 9 17 0 -6
BITMAP
0000
1F00
2100
4100
4000
4000
4000
4000
4100
2100
1E00
0000
0000
0000
0000
0000
0000
ENDCHAR

STARTCHAR D
ENCODING 68
SWIDTH 900 0
DWIDTH 9 0
BBX 9 17 0 -6
BITMAP
0000
7E00
2100
2080
2080
2080
2080
2080
2080
2100
7E00
0000
0000
0000
0000
0000
0000
ENDCHAR

STARTCHAR E
ENCODING 69
SWIDTH 900 0
DWIDTH 9 0
BBX 9 17 0 -6
BITMAP
0000
7F00
2100
2100
2400
3C00
2400
2000
2100
2100
7F00
0000
0000
0000
0000
0000
0000
ENDCHAR

STARTCHAR F
ENCODING 70
SWIDTH 900 0
DWIDTH 9 0
BBX 9 17 0 -6
BITMAP
0000
7F00
2100
2100
2400
3C00
2400
2000
2000
2000
7800
0000
0000
0000
0000
0000
0000
ENDCHAR

STARTCHAR G
ENCODING 71
SWIDTH 900 0
DWIDTH 9 0
BBX 9 17 0 -6
BITMAP
0000
1F00
2100
4100
4000
4000
4000
4780
4100
2100
1E00
0000
0000
0000
0000
0000
0000
ENDCHAR

STARTCHAR H
ENCODING 72
SWIDTH 900 0
DWIDTH 9 0
BBX 9 17 0 -6
BITMAP
0000
7380
2100
2100
2100
3F00
2100
2100
2100
2100
7380
0000
0000
0000
0000
0000
0000
ENDCHAR

STARTCHAR I
ENCODING 73
SWIDTH 900 0
DWIDTH 9 0
BBX 9 17 0 -6
BITMAP
0000
3E00
0800
0800
0800
0800
0800
0800
0800
0800
3E00
0000
0000
0000
0000
0000
0000
ENDCHAR

STARTCHAR J
ENCODING 74
SWIDTH 900 0
DWIDTH 9 0
BBX 9 17 0 -6
BITMAP
0000
0F00
0200
0200
0200
0200
0200
0200
4200
4200
3C00
0000
0000
0000
0000
0000
0000
ENDCHAR

STARTCHAR K
ENCODING 75
SWIDTH 900 0
DWIDTH 9 0
BBX 9 17 0 -6
BITMAP
0000
7380
2100
2200
2400
2C00
3400
2200
2200
2100
7380
0000
0000
0000
0000
0000
0000
ENDCHAR

STARTCHAR L
ENCODING 76
SWIDTH 900 0
DWIDTH 9 0
BBX 9 17 0 -6
BITMAP
0000
7000
2000
2000
2000
2000
2000
2000
2100
2100
7F00
0000
0000
0000
0000
0000
0000
ENDCHAR

STARTCHAR M
ENCODING 77
SWIDTH 900 0
DWIDTH 9 0
BBX 9 17 0 -6
BITMAP
0000
C180
6300
6300
5500
5500
4900
4900
4100
4100
E380
0000
0000
0000
0000
0000
0000
ENDCHAR

STARTCHAR N
ENCODING 78
SWIDTH 900 0
DWIDTH 9 0
BBX 9 17 0 -6
BITMAP
0000
6380
3100
3100
2900
2900
2500
2500
2300
2300
7100
0000
0000
0000
0000
0000
0000
ENDCHAR

STARTCHAR O
ENCODING 79
SWIDTH 900 0
DWIDTH 9 0
BBX 9 17 0 -6
BITMAP
0000
1E00
2100
4080
4080
4080
4080
4080
4080
2100
1E00
0000
0000
0000
0000
0000
0000
ENDCHAR

STARTCHAR P
ENCODING 80
SWIDTH 900 0
DWIDTH 9 0
BBX 9 17 0 -6
BITMAP
0000
7E00
2100
2100
2100
2100
3E00
2000
2000
2000
7800
0000
0000
0000
0000
0000
0000
ENDCHAR

STARTCHAR Q
ENCODING 81
SWIDTH 900 0
DWIDTH 9 0
BBX 9 17 0 -6
BITMAP
0000
1E00
2100
4080
4080
4080
4080
4080
4080
2100
1E00
0400
0200
0100
0000
0000
0000
ENDCHAR

STARTCHAR R
ENCODING 82
SWIDTH 900 0
DWIDTH 9 0
BBX 9 17 0 -6
BITMAP
0000
7E00
2100
2100
2100
3E00
2400
2200
2200
2100
7180
0000
0000
0000
0000
0000
0000
ENDCHAR

STARTCHAR S
ENCODING 83
SWIDTH 900 0
DWIDTH 9 0
BBX 9 17 0 -6
BITMAP
0000
1F00
2100
2000
2000
1800
0600
0100
0100
2100
3E00
0000
0000
0000
0000
0000
0000
ENDCHAR

STARTCHAR T
ENCODING 84
SWIDTH 900 0
DWIDTH 9 0
BBX 9 17 0 -6
BITMAP
0000
7F00
4900
4900
0800
0800
0800
0800
0800
0800
3E00
0000
0000
0000
0000
0000
0000
ENDCHAR

STARTCHAR U
ENCODING 85
SWIDTH 900 0
DWIDTH 9 0
BBX 9 17 0 -6
BITMAP
0000
7380
2100
2100
2100
2100
2100
2100
2100
2100
1E00
0000
0000
0000
0000
0000
0000
ENDCHAR

STARTCHAR V
ENCODING 86
SWIDTH 900 0
DWIDTH 9 0
BBX 9 17 0 -6
BITMAP
0000
E380
4100
4100
2200
2200
2200
1400
1400
0800
0800
0000
0000
0000
0000
0000
0000
ENDCHAR

STARTCHAR W
ENCODING 87
SWIDTH 900 0
DWIDTH 9 0
BBX 9 17 0 -6
BITMAP
0000
E380
4100
4100
4900
4900
5500
5500
2200
2200
2200
0000
0000
0000
0000
0000
0000
ENDCHAR

STARTCHAR X
ENCODING 88
SWIDTH 900 0
DWIDTH 9 0
BBX 9 17 0 -6
BITMAP
0000
7380
2100
1200
1200
0C00
0C00
1200
1200
2100
7380
0000
0000
0000
0000
0000
0000
ENDCHAR

STARTCHAR Y
ENCODING 89
SWIDTH 900 0
DWIDTH 9 0
BBX 9 17 0 -6
BITMAP
0000
E380
4100
2200
2200
1400
0800
0800
0800
0800
3E00
0000
0000
0000
0000
0000
0000
ENDCHAR

STARTCHAR Z
ENCODING 90
SWIDTH 900 0
DWIDTH 9 0
BBX 9 17 0 -6
BITMAP
0000
7F00
4200
4200
0400
0800
0800
1000
2100
2100
7F00
0000
0000
0000
0000
0000
0000
ENDCHAR

STARTCHAR bracketleft
ENCODING 91
SWIDTH 900 0
DWIDTH 9 0
BBX 9 17 0 -6
BITMAP
1E00
1800
1800
1800
1800
1800
1800
1800
1800
1800
1800
1E00
0000
0000
0000
0000
0000
ENDCHAR

STARTCHAR c4540
ENCODING 92
SWIDTH 900 0
DWIDTH 9 0
BBX 9 17 0 -6
BITMAP
4000
2000
2000
1000
1000
0800
0800
0400
0400
0200
0200
0100
0000
0000
0000
0000
0000
ENDCHAR

STARTCHAR bracketright
ENCODING 93
SWIDTH 900 0
DWIDTH 9 0
BBX 9 17 0 -6
BITMAP
1E00
0600
0600
0600
0600
0600
0600
0600
0600
0600
0600
1E00
0000
0000
0000
0000
0000
ENDCHAR

STARTCHAR asciicircum
ENCODING 94
SWIDTH 900 0
DWIDTH 9 0
BBX 9 17 0 -6
BITMAP
0000
0800
1400
2200
0000
0000
0000
0000
0000
0000
0000
0000
0000
0000
0000
0000
0000
ENDCHAR

STARTCHAR underscore
ENCODING 95
SWIDTH 900 0
DWIDTH 9 0
BBX 9 17 0 -6
BITMAP
0000
0000
0000
0000
0000
0000
0000
0000
0000
0000
0000
FF80
0000
0000
0000
0000
0000
ENDCHAR

STARTCHAR quoteleft
ENCODING 96
SWIDTH 900 0
DWIDTH 9 0
BBX 9 17 0 -6
BITMAP
0200
0400
0800
0C00
0C00
0000
0000
0000
0000
0000
0000
0000
0000
0000
0000
0000
0000
ENDCHAR

STARTCHAR a
ENCODING 97
SWIDTH 900 0
DWIDTH 9 0
BBX 9 17 0 -6
BITMAP
0000
0000
0000
0000
0E00
1100
0100
1F00
2100
2300
1D80
0000
0000
0000
0000
0000
0000
ENDCHAR

STARTCHAR b
ENCODING 98
SWIDTH 900 0
DWIDTH 9 0
BBX 9 17 0 -6
BITMAP
0000
6000
2000
2000
2E00
3100
2100
2100
2100
3100
2E00
0000
0000
0000
0000
0000
0000
ENDCHAR

STARTCHAR c
ENCODING 99
SWIDTH 900 0
DWIDTH 9 0
BBX 9 17 0 -6
BITMAP
0000
0000
0000
0000
1F00
2100
2000
2000
2000
2100
1E00
0000
0000
0000
0000
0000
0000
ENDCHAR

STARTCHAR d
ENCODING 100
SWIDTH 900 0
DWIDTH 9 0
BBX 9 17 0 -6
BITMAP
0000
0600
0200
0200
3A00
4600
4200
4200
4200
4600
3B00
0000
0000
0000
0000
0000
0000
ENDCHAR

STARTCHAR e
ENCODING 101
SWIDTH 900 0
DWIDTH 9 0
BBX 9 17 0 -6
BITMAP
0000
0000
0000
0000
1E00
2100
2100
3F00
2000
2100
1E00
0000
0000
0000
0000
0000
0000
ENDCHAR

STARTCHAR f
ENCODING 102
SWIDTH 900 0
DWIDTH 9 0
BBX 9 17 0 -6
BITMAP
0000
0700
0800
0800
3F00
0800
0800
0800
0800
0800
3F00
0000
0000
0000
0000
0000
0000
ENDCHAR

STARTCHAR g
ENCODING 103
SWIDTH 900 0
DWIDTH 9 0
BBX 9 17 0 -6
BITMAP
0000
0000
0000
0000
1C00
2380
2200
2200
1C00
2000
1F00
2080
2080
1F00
0000
0000
0000
ENDCHAR

STARTCHAR h
ENCODING 104
SWIDTH 900 0
DWIDTH 9 0
BBX 9 17 0 -6
BITMAP
0000
6000
2000
2000
2E00
3100
2100
2100
2100
2100
7380
0000
0000
0000
0000
0000
0000
ENDCHAR

STARTCHAR i
ENCODING 105
SWIDTH 900 0
DWIDTH 9 0
BBX 9 17 0 -6
BITMAP
0000
0800
0800
0000
3800
0800
0800
0800
0800
0800
3E00
0000
0000
0000
0000
0000
0000
ENDCHAR

STARTCHAR j
ENCODING 106
SWIDTH 900 0
DWIDTH 9 0
BBX 9 17 0 -6
BITMAP
0000
0400
0400
0000
1C00
0400
0400
0400
0400
0400
0400
0400
4400
3800
0000
0000
0000
ENDCHAR

STARTCHAR k
ENCODING 107
SWIDTH 900 0
DWIDTH 9 0
BBX 9 17 0 -6
BITMAP
0000
6000
2000
2000
2700
2400
2800
3800
2400
2200
7180
0000
0000
0000
0000
0000
0000
ENDCHAR

STARTCHAR l
ENCODING 108
SWIDTH 900 0
DWIDTH 9 0
BBX 9 17 0 -6
BITMAP
0000
1C00
0400
0400
0400
0400
0400
0400
0400
0400
1F00
0000
0000
0000
0000
0000
0000
ENDCHAR

STARTCHAR m
ENCODING 109
SWIDTH 900 0
DWIDTH 9 0
BBX 9 17 0 -6
BITMAP
0000
0000
0000
0000
B600
4900
4900
4900
4900
4900
DB80
0000
0000
0000
0000
0000
0000
ENDCHAR

STARTCHAR n
ENCODING 110
SWIDTH 900 0
DWIDTH 9 0
BBX 9 17 0 -6
BITMAP
0000
0000
0000
0000
6E00
3100
2100
2100
2100
2100
7380
0000
0000
0000
0000
0000
0000
ENDCHAR

STARTCHAR o
ENCODING 111
SWIDTH 900 0
DWIDTH 9 0
BBX 9 17 0 -6
BITMAP
0000
0000
0000
0000
1E00
2100
2100
2100
2100
2100
1E00
0000
0000
0000
0000
0000
0000
ENDCHAR

STARTCHAR p
ENCODING 112
SWIDTH 900 0
DWIDTH 9 0
BBX 9 17 0 -6
BITMAP
0000
0000
0000
0000
6E00
3100
2100
2100
2100
3100
2E00
2000
2000
7000
0000
0000
0000
ENDCHAR

STARTCHAR q
ENCODING 113
SWIDTH 900 0
DWIDTH 9 0
BBX 9 17 0 -6
BITMAP
0000
0000
0000
0000
1D00
2300
2100
2100
2100
2300
1D00
0100
0100
0380
0000
0000
0000
ENDCHAR

STARTCHAR r
ENCODING 114
SWIDTH 900 0
DWIDTH 9 0
BBX 9 17 0 -6
BITMAP
0000
0000
0000
0000
3700
1900
1000
1000
1000
1000
3C00
0000
0000
0000
0000
0000
0000
ENDCHAR

STARTCHAR s
ENCODING 115
SWIDTH 900 0
DWIDTH 9 0
BBX 9 17 0 -6
BITMAP
0000
0000
0000
0000
1F00
2100
2000
1E00
0100
2100
3E00
0000
0000
0000
0000
0000
0000
ENDCHAR

STARTCHAR t
ENCODING 116
SWIDTH 900 0
DWIDTH 9 0
BBX 9 17 0 -6
BITMAP
0000
0000
1000
1000
7E00
1000
1000
1000
1000
1100
0E00
0000
0000
0000
0000
0000
0000
ENDCHAR

STARTCHAR u
ENCODING 117
SWIDTH 900 0
DWIDTH 9 0
BBX 9 17 0 -6
BITMAP
0000
0000
0000
0000
6300
2100
2100
2100
2100
2300
1D80
0000
0000
0000
0000
0000
0000
ENDCHAR

STARTCHAR v
ENCODING 118
SWIDTH 900 0
DWIDTH 9 0
BBX 9 17 0 -6
BITMAP
0000
0000
0000
0000
7380
2100
2100
1200
1200
0C00
0C00
0000
0000
0000
0000
0000
0000
ENDCHAR

STARTCHAR w
ENCODING 119
SWIDTH 900 0
DWIDTH 9 0
BBX 9 17 0 -6
BITMAP
0000
0000
0000
0000
7380
2100
2100
2D00
2D00
1200
1200
0000
0000
0000
0000
0000
0000
ENDCHAR

STARTCHAR x
ENCODING 120
SWIDTH 900 0
DWIDTH 9 0
BBX 9 17 0 -6
BITMAP
0000
0000
0000
0000
7700
2200
1400
0800
1400
2200
7700
0000
0000
0000
0000
0000
0000
ENDCHAR

STARTCHAR y
ENCODING 121
SWIDTH 900 0
DWIDTH 9 0
BBX 9 17 0 -6
BITMAP
0000
0000
0000
0000
7380
2100
2100
1200
1200
0C00
0C00
0800
5000
6000
0000
0000
0000
ENDCHAR

STARTCHAR z
ENCODING 122
SWIDTH 900 0
DWIDTH 9 0
BBX 9 17 0 -6
BITMAP
0000
0000
0000
0000
3F00
2200
0400
0800
1000
2100
3F00
0000
0000
0000
0000
0000
0000
ENDCHAR

STARTCHAR braceleft
ENCODING 123
SWIDTH 900 0
DWIDTH 9 0
BBX 9 17 0 -6
BITMAP
0700
0C00
0C00
0C00
0C00
0800
3000
0800
0C00
0C00
0C00
0C00
0700
0000
0000
0000
0000
ENDCHAR

STARTCHAR bar
ENCODING 124
SWIDTH 900 0
DWIDTH 9 0
BBX 9 17 0 -6
BITMAP
0800
0800
0800
0800
0800
0800
0800
0800
0800
0800
0800
0800
0000
0000
0000
0000
0000
ENDCHAR

STARTCHAR braceright
ENCODING 125
SWIDTH 900 0
DWIDTH 9 0
BBX 9 17 0 -6
BITMAP
3800
0C00
0C00
0C00
0C00
0400
0300
0400
0C00
0C00
0C00
0C00
3800
0000
0000
0000
0000
ENDCHAR

STARTCHAR asciitilde
ENCODING 126
SWIDTH 900 0
DWIDTH 9 0
BBX 9 17 0 -6
BITMAP
0000
0000
0000
0000
1000
3900
4E00
0400
0000
0000
0000
0000
0000
0000
0000
0000
0000
ENDCHAR

STARTCHAR Khah
ENCODING 127
SWIDTH 900 0
DWIDTH 9 0
BBX 9 17 0 -6
BITMAP
3000
3000
0000
0000
3800
7C00
4F80
0780
1E00
F800
E000
0000
0000
0000
0000
0000
0000
ENDCHAR

STARTCHAR Lam
ENCODING 128
SWIDTH 900 0
DWIDTH 9 0
BBX 9 17 0 -6
BITMAP
3000
4100
6900
3100
C300
F300
1F00
0D00
1900
3180
E080
0000
0000
0000
0000
0000
0000
ENDCHAR

STARTCHAR Line
ENCODING 129
SWIDTH 900 0
DWIDTH 9 0
BBX 9 17 0 -6
BITMAP
0000
0000
0000
0000
0000
0000
0400
0800
0800
0F80
0780
0000
0000
0000
0000
0000
0000
ENDCHAR

STARTCHAR Descender
ENCODING 130
SWIDTH 900 0
DWIDTH 9 0
BBX 9 17 0 -6
BITMAP
0000
0000
0000
0000
0000
0000
0000
0000
0400
0800
0800
0800
0C00
0F80
0780
0000
0000
ENDCHAR

STARTCHAR Alef
ENCODING 131
SWIDTH 900 0
DWIDTH 9 0
BBX 9 17 0 -6
BITMAP
0080
1300
1480
1300
1400
1000
1000
1000
1800
1F80
0F80
0000
0000
0000
0000
0000
0000
ENDCHAR

STARTCHAR Line
ENCODING 132
SWIDTH 900 0
DWIDTH 9 0
BBX 9 17 0 -6
BITMAP
0600
0A00
0E00
2400
7800
1000
2400
0800
0800
0F80
0780
0000
0000
0000
0000
0000
0000
ENDCHAR

STARTCHAR Kasratan
ENCODING 133
SWIDTH 900 0
DWIDTH 9 0
BBX 9 17 0 -6
BITMAP
0000
0000
0000
0000
0000
0000
0400
0800
0800
0F80
0780
0000
0180
0600
1980
0600
1800
ENDCHAR

STARTCHAR Line
ENCODING 134
SWIDTH 900 0
DWIDTH 9 0
BBX 9 17 0 -6
BITMAP
0C00
3000
C400
1400
5400
5800
6400
0800
0800
0F80
0780
0000
0000
0000
0000
0000
0000
ENDCHAR

STARTCHAR Line
ENCODING 135
SWIDTH 900 0
DWIDTH 9 0
BBX 9 17 0 -6
BITMAP
1800
2800
3000
C800
2800
A800
B400
C800
0800
0F80
0780
0000
0000
0000
0000
0000
0000
ENDCHAR

STARTCHAR Line
ENCODING 136
SWIDTH 900 0
DWIDTH 9 0
BBX 9 17 0 -6
BITMAP
0400
1400
5400
5800
6600
1800
6400
0800
0800
0F80
0780
0000
0000
0000
0000
0000
0000
ENDCHAR

STARTCHAR Line
ENCODING 137
SWIDTH 900 0
DWIDTH 9 0
BBX 9 17 0 -6
BITMAP
0000
0180
0600
1800
0000
0000
0400
0800
0800
0F80
0780
0000
0000
0000
0000
0000
0000
ENDCHAR

STARTCHAR Line
ENCODING 138
SWIDTH 900 0
DWIDTH 9 0
BBX 9 17 0 -6
BITMAP
0600
0A00
0E00
0600
0800
1000
0400
0800
0800
0F80
0780
0000
0000
0000
0000
0000
0000
ENDCHAR

STARTCHAR Kasra
ENCODING 139
SWIDTH 900 0
DWIDTH 9 0
BBX 9 17 0 -6
BITMAP
0000
0000
0000
0000
0000
0000
0400
0800
0800
0F80
0780
0000
0000
0180
0600
1800
0000
ENDCHAR

STARTCHAR Line
ENCODING 140
SWIDTH 900 0
DWIDTH 9 0
BBX 9 17 0 -6
BITMAP
0300
0480
0480
0300
0000
0000
0400
0800
0800
0F80
0780
0000
0000
0000
0000
0000
0000
ENDCHAR

STARTCHAR Line
ENCODING 141
SWIDTH 900 0
DWIDTH 9 0
BBX 9 17 0 -6
BITMAP
0080
0280
0A80
0B00
0C00
0000
0400
0800
0800
0F80
0780
0000
0000
0000
0000
0000
0000
ENDCHAR

STARTCHAR Alef
ENCODING 142
SWIDTH 900 0
DWIDTH 9 0
BBX 9 17 0 -6
BITMAP
0200
1C00
2200
1C00
2000
0800
0800
0800
0800
0800
0800
0800
0800
0000
0000
0000
0000
ENDCHAR

STARTCHAR Desc
ENCODING 143
SWIDTH 900 0
DWIDTH 9 0
BBX 9 17 0 -6
BITMAP
0000
0300
0500
0700
1300
3C00
0800
1000
0400
0800
0800
0800
0C00
0F80
0780
0000
0000
ENDCHAR

STARTCHAR Jeem
ENCODING 144
SWIDTH 900 0
DWIDTH 9 0
BBX 9 17 0 -6
BITMAP
0000
0000
0000
0000
0000
3800
7F00
8F00
1C00
2000
4400
4E00
4400
6000
7080
3F00
1E00
ENDCHAR

STARTCHAR Hah
ENCODING 145
SWIDTH 900 0
DWIDTH 9 0
BBX 9 17 0 -6
BITMAP
0000
0000
0000
0000
0000
3800
7F00
8F00
1C00
2000
4000
4000
4000
6000
7080
3F00
1E00
ENDCHAR

STARTCHAR Kha
ENCODING 146
SWIDTH 900 0
DWIDTH 9 0
BBX 9 17 0 -6
BITMAP
0000
0800
1C00
0800
0000
3800
7F00
8F00
1C00
2000
4000
4000
4000
6000
7080
3F00
1E00
ENDCHAR

STARTCHAR Teh
ENCODING 147
SWIDTH 900 0
DWIDTH 9 0
BBX 9 17 0 -6
BITMAP
1100
3B80
1500
0400
0C00
1C00
3400
6600
7E00
3B80
0180
0000
0000
0000
0000
0000
0000
ENDCHAR

STARTCHAR Alef
ENCODING 148
SWIDTH 900 0
DWIDTH 9 0
BBX 9 17 0 -6
BITMAP
0000
0800
0800
0800
0800
0800
0800
0800
0C00
0F80
0780
0000
0000
0000
0000
0000
0000
ENDCHAR

STARTCHAR Yeh
ENCODING 149
SWIDTH 900 0
DWIDTH 9 0
BBX 9 17 0 -6
BITMAP
0000
0000
0000
0000
0000
0000
0000
0000
2000
4380
4780
8400
8700
C180
FF80
7700
3600
ENDCHAR

STARTCHAR Yeh
ENCODING 150
SWIDTH 900 0
DWIDTH 9 0
BBX 9 17 0 -6
BITMAP
0000
0000
1800
2000
3400
1800
2000
0000
2000
4380
4780
8400
8700
8380
C180
FF00
7E00
ENDCHAR

STARTCHAR Alef
ENCODING 151
SWIDTH 900 0
DWIDTH 9 0
BBX 9 17 0 -6
BITMAP
0000
0000
0000
0000
0000
0000
0000
0000
2000
4380
4780
8400
8700
8380
C180
FF00
7E00
ENDCHAR

STARTCHAR Lam
ENCODING 152
SWIDTH 900 0
DWIDTH 9 0
BBX 9 17 0 -6
BITMAP
6000
8080
D880
6C80
8680
0380
0180
0180
0280
0E80
0F00
0000
0000
0000
0000
0000
0000
ENDCHAR

STARTCHAR Lam
ENCODING 153
SWIDTH 900 0
DWIDTH 9 0
BBX 9 17 0 -6
BITMAP
7200
9D00
3100
3900
1D00
0700
0300
0300
0500
1D00
1E00
0000
0000
0000
0000
0000
0000
ENDCHAR

STARTCHAR Hamza
ENCODING 154
SWIDTH 900 0
DWIDTH 9 0
BBX 9 17 0 -6
BITMAP
0000
4200
6200
7200
3A00
0E00
0600
0600
0A00
3A00
3C00
0000
1800
2000
3400
1800
2000
ENDCHAR

STARTCHAR Lam
ENCODING 155
SWIDTH 900 0
DWIDTH 9 0
BBX 9 17 0 -6
BITMAP
0000
4200
6200
7200
3A00
0E00
0600
0600
0A00
3A00
3C00
0000
0000
0000
0000
0000
0000
ENDCHAR

STARTCHAR Lam
ENCODING 156
SWIDTH 900 0
DWIDTH 9 0
BBX 9 17 0 -6
BITMAP
0000
0800
0800
0800
0800
0800
0800
0800
0800
FF80
F780
0000
0000
0000
0000
0000
0000
ENDCHAR

STARTCHAR Alef
ENCODING 157
SWIDTH 900 0
DWIDTH 9 0
BBX 9 17 0 -6
BITMAP
6000
8800
D800
6800
8800
0800
0800
0800
0800
0F80
0780
0000
0000
0000
0000
0000
0000
ENDCHAR

STARTCHAR Alef
ENCODING 158
SWIDTH 900 0
DWIDTH 9 0
BBX 9 17 0 -6
BITMAP
1C80
2300
0800
0800
0800
0800
0800
0800
0800
0F80
0780
0000
0000
0000
0000
0000
0000
ENDCHAR

STARTCHAR Hamza
ENCODING 159
SWIDTH 900 0
DWIDTH 9 0
BBX 9 17 0 -6
BITMAP
0000
0800
0800
0800
0800
0800
0800
0800
0800
0F80
0780
0000
0C00
1000
1A00
0C00
1000
ENDCHAR

STARTCHAR Meem
ENCODING 161
SWIDTH 900 0
DWIDTH 9 0
BBX 9 17 0 -6
BITMAP
0000
0000
0000
0000
0000
0600
0F00
1B00
3180
F980
EF00
0600
0000
0000
0000
0000
0000
ENDCHAR

STARTCHAR Noon
ENCODING 162
SWIDTH 900 0
DWIDTH 9 0
BBX 9 17 0 -6
BITMAP
0000
0000
0400
0E00
0400
0000
0080
0080
0080
FF80
FF00
0000
0000
0000
0000
0000
0000
ENDCHAR

STARTCHAR Qaf
ENCODING 163
SWIDTH 900 0
DWIDTH 9 0
BBX 9 17 0 -6
BITMAP
0800
5C00
EB00
4780
0480
0480
0780
0380
0080
FF80
FF00
0000
0000
0000
0000
0000
0000
ENDCHAR

STARTCHAR Yeh
ENCODING 164
SWIDTH 900 0
DWIDTH 9 0
BBX 9 17 0 -6
BITMAP
0000
0000
0000
0000
0000
0000
0080
0080
0080
FF80
FF00
0000
0400
2E00
7400
2000
0000
ENDCHAR

STARTCHAR Seen
ENCODING 165
SWIDTH 900 0
DWIDTH 9 0
BBX 9 17 0 -6
BITMAP
0000
0000
0000
0000
0000
0000
0100
4980
4880
FF80
B700
0000
0000
0000
0000
0000
0000
ENDCHAR

STARTCHAR Sheen
ENCODING 166
SWIDTH 900 0
DWIDTH 9 0
BBX 9 17 0 -6
BITMAP
1000
3800
1000
4400
EE00
4400
0100
4980
4880
FF80
B700
0000
0000
0000
0000
0000
0000
ENDCHAR

STARTCHAR Sad
ENCODING 167
SWIDTH 900 0
DWIDTH 9 0
BBX 9 17 0 -6
BITMAP
0000
0000
0000
0000
0000
0700
0F80
4980
5080
FF80
BF00
2000
0000
0000
0000
0000
0000
ENDCHAR

STARTCHAR Dad
ENCODING 168
SWIDTH 900 0
DWIDTH 9 0
BBX 9 17 0 -6
BITMAP
0000
1000
3800
1000
0000
0700
0F80
4980
5080
FF80
BF00
2000
0000
0000
0000
0000
0000
ENDCHAR

STARTCHAR Shadda
ENCODING 169
SWIDTH 900 0
DWIDTH 9 0
BBX 9 17 0 -6
BITMAP
0300
0C00
1100
0500
1500
1600
1800
0000
0000
FF80
FF80
0000
0000
0000
0000
0000
0000
ENDCHAR

STARTCHAR Jeem
ENCODING 170
SWIDTH 900 0
DWIDTH 9 0
BBX 9 17 0 -6
BITMAP
0000
0000
0000
0000
3800
7C00
4F00
0700
1E00
F800
E000
0800
1C00
0800
0000
0000
0000
ENDCHAR

STARTCHAR Hah
ENCODING 171
SWIDTH 900 0
DWIDTH 9 0
BBX 9 17 0 -6
BITMAP
0000
0000
0000
0000
3800
7C00
4F00
0700
1E00
F800
E000
0000
0000
0000
0000
0000
0000
ENDCHAR

STARTCHAR Arabic
ENCODING 172
SWIDTH 900 0
DWIDTH 9 0
BBX 9 17 0 -6
BITMAP
0000
0000
0000
0000
0000
0400
0800
1800
1C00
1C00
0800
0000
0000
0000
0000
0000
0000
ENDCHAR

STARTCHAR Ain
ENCODING 173
SWIDTH 900 0
DWIDTH 9 0
BBX 9 17 0 -6
BITMAP
0000
0000
0000
0000
0000
0000
1C00
3E00
1C00
F780
E380
0000
0000
0000
0000
0000
0000
ENDCHAR

STARTCHAR Ghain
ENCODING 174
SWIDTH 900 0
DWIDTH 9 0
BBX 9 17 0 -6
BITMAP
0000
0000
0800
1C00
0800
0000
1C00
3E00
1C00
F780
E380
0000
0000
0000
0000
0000
0000
ENDCHAR

STARTCHAR Heh
ENCODING 175
SWIDTH 900 0
DWIDTH 9 0
BBX 9 17 0 -6
BITMAP
0000
0000
0000
0000
0C00
1C00
1400
2400
2800
FF80
FF80
2800
2400
2400
3C00
1800
0000
ENDCHAR

STARTCHAR Arabic
ENCODING 176
SWIDTH 900 0
DWIDTH 9 0
BBX 9 17 0 -6
BITMAP
0000
0000
0000
0000
0800
1C00
3E00
1C00
0800
0000
0000
0000
0000
0000
0000
0000
0000
ENDCHAR

STARTCHAR Arabic
ENCODING 177
SWIDTH 900 0
DWIDTH 9 0
BBX 9 17 0 -6
BITMAP
0000
1000
1800
1800
1C00
0C00
0C00
0400
0400
0400
0400
0000
0000
0000
0000
0000
0000
ENDCHAR

STARTCHAR Arabic
ENCODING 178
SWIDTH 900 0
DWIDTH 9 0
BBX 9 17 0 -6
BITMAP
0000
4100
6100
7F00
3E00
3800
1800
1800
0800
0800
0800
0000
0000
0000
0000
0000
0000
ENDCHAR

STARTCHAR Arabic
ENCODING 179
SWIDTH 900 0
DWIDTH 9 0
BBX 9 17 0 -6
BITMAP
0000
4900
4900
7F00
3600
3000
1000
1000
1000
1000
1000
0000
0000
0000
0000
0000
0000
ENDCHAR

STARTCHAR Arabic
ENCODING 180
SWIDTH 900 0
DWIDTH 9 0
BBX 9 17 0 -6
BITMAP
0000
0600
1800
3000
3800
1E00
0C00
1800
3000
3800
1F00
0700
0000
0000
0000
0000
0000
ENDCHAR

STARTCHAR Arabic
ENCODING 181
SWIDTH 900 0
DWIDTH 9 0
BBX 9 17 0 -6
BITMAP
0000
0000
1C00
3E00
6F00
4700
4300
6300
7E00
3C00
0000
0000
0000
0000
0000
0000
0000
ENDCHAR

STARTCHAR Arabic
ENCODING 182
SWIDTH 900 0
DWIDTH 9 0
BBX 9 17 0 -6
BITMAP
0000
4200
7E00
3C00
0400
0400
0600
0600
0300
0300
0100
0000
0000
0000
0000
0000
0000
ENDCHAR

STARTCHAR Arabic
ENCODING 183
SWIDTH 900 0
DWIDTH 9 0
BBX 9 17 0 -6
BITMAP
0000
4100
6300
6300
3600
3600
1400
1C00
0800
0800
0800
0000
0000
0000
0000
0000
0000
ENDCHAR

STARTCHAR Arabic
ENCODING 184
SWIDTH 900 0
DWIDTH 9 0
BBX 9 17 0 -6
BITMAP
0000
0800
0800
0800
1C00
1400
3600
3600
6300
6300
4100
0000
0000
0000
0000
0000
0000
ENDCHAR

STARTCHAR Arabic
ENCODING 185
SWIDTH 900 0
DWIDTH 9 0
BBX 9 17 0 -6
BITMAP
0000
1C00
3E00
2200
2200
3E00
1E00
0200
0300
0300
0100
0000
0000
0000
0000
0000
0000
ENDCHAR

STARTCHAR Ghain
ENCODING 186
SWIDTH 900 0
DWIDTH 9 0
BBX 9 17 0 -6
BITMAP
0000
0000
0800
1C00
0800
0000
1C00
3E00
1C00
2780
4380
4000
4000
6000
7080
3F00
1E00
ENDCHAR

STARTCHAR Arabic
ENCODING 187
SWIDTH 900 0
DWIDTH 9 0
BBX 9 17 0 -6
BITMAP
0000
0400
0800
1000
1C00
1C00
0800
0000
0800
1C00
1C00
0800
0000
0000
0000
0000
0000
ENDCHAR

STARTCHAR Kaf
ENCODING 188
SWIDTH 900 0
DWIDTH 9 0
BBX 9 17 0 -6
BITMAP
0380
0E00
3800
6000
6000
3800
1E00
0700
0180
FF80
FF00
0000
0000
0000
0000
0000
0000
ENDCHAR

STARTCHAR Lam
ENCODING 189
SWIDTH 900 0
DWIDTH 9 0
BBX 9 17 0 -6
BITMAP
0000
0080
0080
0080
0080
0080
0080
0080
0080
FF80
FF00
0000
0000
0000
0000
0000
0000
ENDCHAR

STARTCHAR Hamza
ENCODING 190
SWIDTH 900 0
DWIDTH 9 0
BBX 9 17 0 -6
BITMAP
0000
C100
E100
3100
1300
0B00
0B00
0D00
0D00
3180
E080
0000
3000
4000
6800
3000
4000
ENDCHAR

STARTCHAR Arabic
ENCODING 191
SWIDTH 900 0
DWIDTH 9 0
BBX 9 17 0 -6
BITMAP
0000
1E00
7300
6780
6300
3000
1800
0C00
0C00
0000
0C00
1E00
0C00
0000
0000
0000
0000
ENDCHAR

STARTCHAR Lam
ENCODING 192
SWIDTH 900 0
DWIDTH 9 0
BBX 9 17 0 -6
BITMAP
F800
0100
C100
E100
3300
1300
0B00
0D00
0D00
3180
E180
0000
0000
0000
0000
0000
0000
ENDCHAR

STARTCHAR Hamza
ENCODING 193
SWIDTH 900 0
DWIDTH 9 0
BBX 9 17 0 -6
BITMAP
0000
0000
0000
0000
0C00
1E00
1200
1000
1D00
0F00
1C00
2000
0000
0000
0000
0000
0000
ENDCHAR

STARTCHAR Alef
ENCODING 194
SWIDTH 900 0
DWIDTH 9 0
BBX 9 17 0 -6
BITMAP
1C80
2300
0800
0800
0800
0800
0800
0800
0800
0800
0800
0800
0000
0000
0000
0000
0000
ENDCHAR

STARTCHAR Alef
ENCODING 195
SWIDTH 900 0
DWIDTH 9 0
BBX 9 17 0 -6
BITMAP
1800
3200
1C00
2800
0800
0800
0800
0800
0800
0800
0800
0800
0000
0000
0000
0000
0000
ENDCHAR

STARTCHAR Waw
ENCODING 196
SWIDTH 900 0
DWIDTH 9 0
BBX 9 17 0 -6
BITMAP
0C00
1000
1A00
0C00
1000
0600
0F00
0980
0980
0F80
0780
0180
0300
0700
3E00
1C00
0000
ENDCHAR

STARTCHAR Hamza
ENCODING 197
SWIDTH 900 0
DWIDTH 9 0
BBX 9 17 0 -6
BITMAP
0000
0800
0800
0800
0800
0800
0800
0800
0800
0800
0800
0000
0C00
1000
1A00
0C00
1000
ENDCHAR

STARTCHAR Yeh
ENCODING 198
SWIDTH 900 0
DWIDTH 9 0
BBX 9 17 0 -6
BITMAP
0C00
1000
1A00
0C00
1000
0000
0080
0080
0080
FF80
FF00
0000
0000
0000
0000
0000
0000
ENDCHAR

STARTCHAR Alef
ENCODING 199
SWIDTH 900 0
DWIDTH 9 0
BBX 9 17 0 -6
BITMAP
0000
0800
0800
0800
0800
0800
0800
0800
0800
0800
0800
0800
0000
0000
0000
0000
0000
ENDCHAR

STARTCHAR Beh
ENCODING 200
SWIDTH 900 0
DWIDTH 9 0
BBX 9 17 0 -6
BITMAP
0000
0000
0000
0000
0000
0000
0080
0080
0080
FF80
FF00
0000
0800
1C00
0800
0000
0000
ENDCHAR

STARTCHAR Teh
ENCODING 201
SWIDTH 900 0
DWIDTH 9 0
BBX 9 17 0 -6
BITMAP
2200
7700
2200
0000
1C00
3E00
6300
4100
4100
7F00
3E00
0000
0000
0000
0000
0000
0000
ENDCHAR

STARTCHAR Teh
ENCODING 202
SWIDTH 900 0
DWIDTH 9 0
BBX 9 17 0 -6
BITMAP
0000
0200
1700
3A00
1000
0000
0080
0080
0080
FF80
FF00
0000
0000
0000
0000
0000
0000
ENDCHAR

STARTCHAR Theh
ENCODING 203
SWIDTH 900 0
DWIDTH 9 0
BBX 9 17 0 -6
BITMAP
0800
1C00
2A00
7700
2200
0000
0080
0080
0080
FF80
FF00
0000
0000
0000
0000
0000
0000
ENDCHAR

STARTCHAR Jeem
ENCODING 204
SWIDTH 900 0
DWIDTH 9 0
BBX 9 17 0 -6
BITMAP
0000
0000
0000
0000
0000
3800
7C00
4600
0380
FF80
FF80
0000
0800
1C00
0800
0000
0000
ENDCHAR

STARTCHAR Hah
ENCODING 205
SWIDTH 900 0
DWIDTH 9 0
BBX 9 17 0 -6
BITMAP
0000
0000
0000
0000
0000
3800
7C00
4600
0380
FF80
FF80
0000
0000
0000
0000
0000
0000
ENDCHAR

STARTCHAR Khah
ENCODING 206
SWIDTH 900 0
DWIDTH 9 0
BBX 9 17 0 -6
BITMAP
0000
1000
3800
1000
0000
3800
7C00
4600
0380
FF80
FF80
0000
0000
0000
0000
0000
0000
ENDCHAR

STARTCHAR Dal
ENCODING 207
SWIDTH 900 0
DWIDTH 9 0
BBX 9 17 0 -6
BITMAP
0000
0000
0000
0000
0C00
0E00
0300
0180
2180
3F80
1F00
0000
0000
0000
0000
0000
0000
ENDCHAR

STARTCHAR Thal
ENCODING 208
SWIDTH 900 0
DWIDTH 9 0
BBX 9 17 0 -6
BITMAP
1000
3800
1000
0000
0C00
0E00
0300
0180
2180
3F80
1F00
0000
0000
0000
0000
0000
0000
ENDCHAR

STARTCHAR Ra
ENCODING 209
SWIDTH 900 0
DWIDTH 9 0
BBX 9 17 0 -6
BITMAP
0000
0000
0000
0000
0000
0000
0200
0300
0180
0180
0180
0300
0700
0E00
3C00
0000
0000
ENDCHAR

STARTCHAR Zain
ENCODING 210
SWIDTH 900 0
DWIDTH 9 0
BBX 9 17 0 -6
BITMAP
0000
0400
0E00
0400
0000
0000
0200
0300
0180
0180
0180
0300
0700
0E00
3C00
0000
0000
ENDCHAR

STARTCHAR Seen
ENCODING 211
SWIDTH 900 0
DWIDTH 9 0
BBX 9 17 0 -6
BITMAP
0000
0000
0000
0000
0000
0000
0100
8980
C880
7F80
7700
4000
C000
C000
8000
0000
0000
ENDCHAR

STARTCHAR Sheen
ENCODING 212
SWIDTH 900 0
DWIDTH 9 0
BBX 9 17 0 -6
BITMAP
1000
3800
1000
4400
EE00
4400
0100
8980
C880
7F80
7700
4000
C000
C000
8000
0000
0000
ENDCHAR

STARTCHAR Sad
ENCODING 213
SWIDTH 900 0
DWIDTH 9 0
BBX 9 17 0 -6
BITMAP
0000
0000
0000
0000
0000
0700
0F80
8980
D080
7F80
7F00
5000
C000
C000
8000
0000
0000
ENDCHAR

STARTCHAR Dad
ENCODING 214
SWIDTH 900 0
DWIDTH 9 0
BBX 9 17 0 -6
BITMAP
0000
0000
1000
3800
1000
0700
0F80
8980
D080
7F80
7F00
5000
C000
C000
8000
0000
0000
ENDCHAR

STARTCHAR Tah
ENCODING 215
SWIDTH 900 0
DWIDTH 9 0
BBX 9 17 0 -6
BITMAP
0000
4000
4000
4000
4000
4700
4F80
5180
6080
FF80
FF00
0000
0000
0000
0000
0000
0000
ENDCHAR

STARTCHAR Zah
ENCODING 216
SWIDTH 900 0
DWIDTH 9 0
BBX 9 17 0 -6
BITMAP
0000
4400
4E00
4400
4000
4700
4F80
5180
6080
FF80
FF00
0000
0000
0000
0000
0000
0000
ENDCHAR

STARTCHAR Ain
ENCODING 217
SWIDTH 900 0
DWIDTH 9 0
BBX 9 17 0 -6
BITMAP
0000
0000
0000
1800
3800
6000
6200
3C00
1800
2000
4000
4000
4000
6000
7080
3F00
1E00
ENDCHAR

STARTCHAR Ghain
ENCODING 218
SWIDTH 900 0
DWIDTH 9 0
BBX 9 17 0 -6
BITMAP
2000
7000
2000
1800
3800
6000
6200
3C00
1800
2000
4000
4000
4000
6000
7080
3F00
1E00
ENDCHAR

STARTCHAR Jeem
ENCODING 219
SWIDTH 900 0
DWIDTH 9 0
BBX 9 17 0 -6
BITMAP
0000
0000
0000
0000
0000
3800
7F00
8F00
1C00
2780
4380
4400
4E00
6400
7080
3F00
1E00
ENDCHAR

STARTCHAR Hah
ENCODING 220
SWIDTH 900 0
DWIDTH 9 0
BBX 9 17 0 -6
BITMAP
0000
0000
0000
0000
0000
3800
7F00
8F00
1C00
2780
4380
4000
4000
6000
7080
3F00
1E00
ENDCHAR

STARTCHAR Khah
ENCODING 221
SWIDTH 900 0
DWIDTH 9 0
BBX 9 17 0 -6
BITMAP
0000
0800
1C00
0800
0000
3800
7F00
8F00
1C00
2780
4380
4000
4000
6000
7080
3F00
1E00
ENDCHAR

STARTCHAR Shadda
ENCODING 222
SWIDTH 900 0
DWIDTH 9 0
BBX 9 17 0 -6
BITMAP
0100
0500
1500
1600
1800
0000
0000
0000
0000
FF80
FF80
0000
0000
0000
0000
0000
0000
ENDCHAR

STARTCHAR Yeh
ENCODING 223
SWIDTH 900 0
DWIDTH 9 0
BBX 9 17 0 -6
BITMAP
0000
3000
4000
6800
3000
4000
0000
0700
0F00
4800
8C00
8600
C300
FF00
7E00
0000
0000
ENDCHAR

STARTCHAR Tatweel
ENCODING 224
SWIDTH 900 0
DWIDTH 9 0
BBX 9 17 0 -6
BITMAP
0000
0000
0000
0000
0000
0000
0000
0000
0000
FF80
FF80
0000
0000
0000
0000
0000
0000
ENDCHAR

STARTCHAR Feh
ENCODING 225
SWIDTH 900 0
DWIDTH 9 0
BBX 9 17 0 -6
BITMAP
2000
7000
2300
0780
0480
0480
0780
0380
0080
FF80
FF00
0000
0000
0000
0000
0000
0000
ENDCHAR

STARTCHAR Qaf
ENCODING 226
SWIDTH 900 0
DWIDTH 9 0
BBX 9 17 0 -6
BITMAP
0200
1700
3A00
1000
0000
0600
0F00
0980
4980
8F80
8780
8180
8180
C300
FF00
7C00
0000
ENDCHAR

STARTCHAR Kaf
ENCODING 227
SWIDTH 900 0
DWIDTH 9 0
BBX 9 17 0 -6
BITMAP
0000
0080
0080
0080
0080
0C80
1080
5C80
8480
9880
C180
FF00
7E00
0000
0000
0000
0000
ENDCHAR

STARTCHAR Lam
ENCODING 228
SWIDTH 900 0
DWIDTH 9 0
BBX 9 17 0 -6
BITMAP
0000
0080
0080
0080
0080
0080
0080
0080
0080
1080
2080
4080
4080
6180
7F00
3E00
0000
ENDCHAR

STARTCHAR Meem
ENCODING 229
SWIDTH 900 0
DWIDTH 9 0
BBX 9 17 0 -6
BITMAP
0000
0000
0000
0000
0C00
1E00
1F00
3180
2180
1F80
3F00
3000
3000
3000
1000
1800
0800
ENDCHAR

STARTCHAR Noon
ENCODING 230
SWIDTH 900 0
DWIDTH 9 0
BBX 9 17 0 -6
BITMAP
0000
0000
0000
0000
0000
1000
3800
1000
0200
4300
8180
8180
8180
C380
FF00
7E00
0000
ENDCHAR

STARTCHAR Heh
ENCODING 231
SWIDTH 900 0
DWIDTH 9 0
BBX 9 17 0 -6
BITMAP
0000
0000
0000
0000
1C00
3E00
6700
4300
4100
7F00
3E00
0000
0000
0000
0000
0000
0000
ENDCHAR

STARTCHAR Waw
ENCODING 232
SWIDTH 900 0
DWIDTH 9 0
BBX 9 17 0 -6
BITMAP
0000
0000
0000
0000
0000
0600
0F00
0980
0980
0F80
0780
0180
0300
0700
3E00
1C00
0000
ENDCHAR

STARTCHAR Alef
ENCODING 233
SWIDTH 900 0
DWIDTH 9 0
BBX 9 17 0 -6
BITMAP
0000
0000
0000
0000
0000
0000
0000
0700
0F00
4800
8C00
8600
C300
FF00
7E00
0000
0000
ENDCHAR

STARTCHAR Yeh
ENCODING 234
SWIDTH 900 0
DWIDTH 9 0
BBX 9 17 0 -6
BITMAP
0000
0000
0000
0000
0000
0000
0700
0F00
4800
8C00
8600
C300
FF00
7E00
0000
6600
6600
ENDCHAR

STARTCHAR Fathatan
ENCODING 235
SWIDTH 900 0
DWIDTH 9 0
BBX 9 17 0 -6
BITMAP
0100
0600
1900
0600
1800
0000
0000
0000
0000
0000
0000
0000
0000
0000
0000
0000
0000
ENDCHAR

STARTCHAR Dammatan
ENCODING 236
SWIDTH 900 0
DWIDTH 9 0
BBX 9 17 0 -6
BITMAP
0300
0500
0700
1300
3C00
0800
1000
0000
0000
0000
0000
0000
0000
0000
0000
0000
0000
ENDCHAR

STARTCHAR Kasratan
ENCODING 237
SWIDTH 900 0
DWIDTH 9 0
BBX 9 17 0 -6
BITMAP
0000
0000
0000
0000
0000
0000
0000
0000
0000
0000
0000
0000
0100
0600
1900
0600
1800
ENDCHAR

STARTCHAR Fatha
ENCODING 238
SWIDTH 900 0
DWIDTH 9 0
BBX 9 17 0 -6
BITMAP
0100
0600
1800
0000
0000
0000
0000
0000
0000
0000
0000
0000
0000
0000
0000
0000
0000
ENDCHAR

STARTCHAR Damma
ENCODING 239
SWIDTH 900 0
DWIDTH 9 0
BBX 9 17 0 -6
BITMAP
0300
0500
0700
0300
0400
0800
0000
0000
0000
0000
0000
0000
0000
0000
0000
0000
0000
ENDCHAR

STARTCHAR Kasra
ENCODING 240
SWIDTH 900 0
DWIDTH 9 0
BBX 9 17 0 -6
BITMAP
0000
0000
0000
0000
0000
0000
0000
0000
0000
0000
0000
0000
0000
0000
0100
0600
1800
ENDCHAR

STARTCHAR Shadda
ENCODING 241
SWIDTH 900 0
DWIDTH 9 0
BBX 9 17 0 -6
BITMAP
0100
0500
1500
1600
1800
0000
0000
0000
0000
0000
0000
0000
0000
0000
0000
0000
0000
ENDCHAR

STARTCHAR Sukun
ENCODING 242
SWIDTH 900 0
DWIDTH 9 0
BBX 9 17 0 -6
BITMAP
0600
0900
0900
0600
0000
0000
0000
0000
0000
0000
0000
0000
0000
0000
0000
0000
0000
ENDCHAR

STARTCHAR Ain
ENCODING 243
SWIDTH 900 0
DWIDTH 9 0
BBX 9 17 0 -6
BITMAP
0000
0000
0000
0000
1800
3E00
6000
6000
3300
FE00
FC00
0000
0000
0000
0000
0000
0000
ENDCHAR

STARTCHAR Ghain
ENCODING 244
SWIDTH 900 0
DWIDTH 9 0
BBX 9 17 0 -6
BITMAP
1000
3800
1000
0000
1800
3E00
6000
6000
3300
FE00
FC00
0000
0000
0000
0000
0000
0000
ENDCHAR

STARTCHAR Heh
ENCODING 245
SWIDTH 900 0
DWIDTH 9 0
BBX 9 17 0 -6
BITMAP
0000
0000
6000
7800
7C00
2E00
4700
6B00
3100
FF00
CE00
0000
0000
0000
0000
0000
0000
ENDCHAR

STARTCHAR Shadda
ENCODING 246
SWIDTH 900 0
DWIDTH 9 0
BBX 9 17 0 -6
BITMAP
0300
0C00
1100
0500
1500
1600
1800
0000
0000
0000
0000
0000
0000
0000
0000
0000
0000
ENDCHAR

STARTCHAR Shadda
ENCODING 247
SWIDTH 900 0
DWIDTH 9 0
BBX 9 17 0 -6
BITMAP
0600
0A00
0E00
1900
2500
1500
1600
1800
0000
0000
0000
0000
0000
0000
0000
0000
0000
ENDCHAR

STARTCHAR Kasra
ENCODING 248
SWIDTH 900 0
DWIDTH 9 0
BBX 9 17 0 -6
BITMAP
0100
0500
1500
1600
1900
0600
1800
0000
0000
0000
0000
0000
0000
0000
0000
0000
0000
ENDCHAR

STARTCHAR Shadda
ENCODING 249
SWIDTH 900 0
DWIDTH 9 0
BBX 9 17 0 -6
BITMAP
0600
0A00
0E00
1900
2500
1500
1600
1800
0000
FF80
FF80
0000
0000
0000
0000
0000
0000
ENDCHAR

STARTCHAR Kasra
ENCODING 250
SWIDTH 900 0
DWIDTH 9 0
BBX 9 17 0 -6
BITMAP
0100
0500
1500
1600
1900
0600
1800
0000
0000
FF80
FF80
0000
0000
0000
0000
0000
0000
ENDCHAR

STARTCHAR Fatha
ENCODING 251
SWIDTH 900 0
DWIDTH 9 0
BBX 9 17 0 -6
BITMAP
0000
0100
0600
1800
0000
0000
0000
0000
0000
FF80
FF80
0000
0000
0000
0000
0000
0000
ENDCHAR

STARTCHAR Damma
ENCODING 252
SWIDTH 900 0
DWIDTH 9 0
BBX 9 17 0 -6
BITMAP
0600
0A00
0E00
0400
0800
1000
0000
0000
0000
FF80
FF80
0000
0000
0000
0000
0000
0000
ENDCHAR

STARTCHAR Kasra
ENCODING 253
SWIDTH 900 0
DWIDTH 9 0
BBX 9 17 0 -6
BITMAP
0000
0000
0000
0000
0000
0000
0000
0000
0000
FF80
FF80
0000
0000
0100
0600
1800
0000
ENDCHAR

STARTCHAR Sukun
ENCODING 254
SWIDTH 900 0
DWIDTH 9 0
BBX 9 17 0 -6
BITMAP
0600
0900
0900
0600
0000
0000
0000
0000
0000
FF80
FF80
0000
0000
0000
0000
0000
0000
ENDCHAR
ENDFONT
